<svg  class="icon" viewBox="0 0 1024 1024" version="1.1" xmlns="http://www.w3.org/2000/svg"  width="200" height="200"><path d="M895.445333 266.581333l1.749334 0.085334 1.664 0.256 1.706666 0.469333 1.664 0.64 1.621334 0.853333 1.664 0.938667 1.493333 1.28 1.493333 1.237333 1.578667 1.92 1.962667 1.92 1.28 1.92 1.877333 1.92 3.2 5.077334 1.237333 2.56 1.237334 3.2 1.28 3.157333 1.322666 3.157333 1.194667 3.157334 1.237333 3.84 1.237334 3.84 1.28 3.84 1.322666 3.797333 1.237334 4.437333 1.194666 4.437334 1.322667 4.48 1.28 4.437333 1.237333 4.437333 1.237334 4.437334 1.28 5.12 1.28 5.034666 1.237333 5.76 0.64 5.12 1.237333 5.717334 1.28 5.717333 0.725334 5.76 1.194666 6.357333 0.64 6.314667 0.64 6.357333 1.322667 6.357334 0.64 6.357333 0.682667 6.314667 0.64 7.04 0.64 6.997333 0.64 6.954667 0.64 7.04 0.64 6.997333 0.682666 7.637333 0.64 14.634667 0.682667 7.637333 0.64 7.637334 0.64 7.68 0.64 7.68 0.64 8.234666 0.64 8.234667 0.64 8.234667 0.682667 8.32 0.64 8.234666v16.554667l0.682666 8.917333 0.64 8.917334v17.194666l0.64 8.874667v26.069333l0.64 17.877334 0.64 26.666666v54.144l0.64 15.914667 1.28 11.477333 1.962667 7.637334 1.834667 5.077333 2.005333 4.437333 2.517333 3.84 1.92 1.877334 1.92 1.92 1.877334 1.92 2.645333 1.237333 3.797333 1.962667 3.797334 1.237333 4.096 1.28 6.058666 1.237333 8.234667 0.469334 11.477333-0.682667h4.266667v96.128l-10.197333 1.237333-24.149334 1.109334-26.026666-1.237334-19.114667-2.858666-14.677333-3.797334-10.837334-3.797333-10.112-5.077333-10.069333-6.4-8.874667-7.850667-5.717333-5.717333-5.802667-6.357334-7.253333-11.477333-6.4-13.354667-5.077333-14.592-3.498667-17.194666-2.304-19.456-0.64-21.674667v-82.688l-0.64-17.834667v-36.906666l-0.64-17.152v-12.245334l-0.682667-8.490666v-16.938667l-0.64-8.277333v-8.234667l-0.341333-8.234667-0.64-8.277333-0.597333-7.637333-0.128-7.68-0.64-7.637334-0.64-7.808v-7.594666l-0.64-7.68-0.725334-7.637334-0.512-7.637333-0.597333-7.253333-0.725333-7.253334-0.64-6.997333-0.64-7.210667-0.64-6.826666-0.597334-6.954667-0.64-6.997333-0.725333-6.4-0.64-6.314667-0.682667-6.741333-0.64-6.016-0.64-5.76-1.877333-11.861334-0.682667-5.717333-0.64-5.76-1.28-5.333333-1.109333-5.76-1.237333-5.034667-1.28-5.12-1.322667-5.077333-1.450667-4.394667-1.237333-4.437333-1.066667-4.394667-1.92-3.84-1.237333-4.437333-1.237333-3.797334-0.938667-3.84-1.237333-3.797333-1.322667-3.84-1.28-3.157333-1.237333-3.242667-1.237334-3.157333-1.28-2.517334-1.28-2.602666-1.237333-2.56-1.877333-2.56-1.28-1.92-1.536-1.92-1.322667-1.877334-1.749333-1.28-1.194667-1.237333-1.962667-1.28-1.194666-0.64-1.962667-0.682667-2.090667-0.512-1.877333-0.682666-1.28-0.64h-1.28 108.885333l-2.176 1.322666zM0.341333 131.498667l49.877334 0.896 46.464 1.109333 41.386666 0.64 36.309334 1.28 31.146666 1.237333 27.392 1.237334 24.192 1.28 21.589334 1.237333 19.754666 1.962667 17.834667 1.877333 16.512 1.962667 15.232 1.877333 14.037333 1.962667 13.354667 1.877333 12.074667 2.602667 11.52 2.517333 10.752 2.517333 10.24 2.56 9.514666 2.56 8.917334 2.56 8.277333 3.2 8.277333 2.517334 7.637334 3.157333 6.954666 3.242667 7.082667 3.157333 6.314667 3.157333 6.997333 3.157334 6.314667 3.84 5.76 3.84 5.76 3.84 5.077333 3.754666 5.077333 3.84 5.077334 3.84 5.077333 3.84 4.437333 3.84 4.437334 4.437334 4.437333 3.84 4.48 4.437333 3.84 4.437333 3.84 4.437334 4.437333 4.48 3.84 4.437333 3.84 4.437333 3.157334 4.437334 3.84 4.48 3.157333 5.077333 3.157333 4.437333 3.157334 5.077334 3.2 5.12 3.157333 5.077333 3.157333 5.12 2.56 5.077333 2.602667 5.077334 3.157333 5.077333 2.56 5.077333 2.56 5.077334 2.56 5.077333 2.56 5.12 1.92 5.034667 2.048 5.12 2.56 5.76 2.133334 5.034666 2.56 5.76 2.56 5.077334 1.877333 5.077333 2.602667 5.76 2.304 5.76 1.877333 5.077333 2.176 5.717334 1.92 5.12 1.92 5.674666 1.92 5.76 1.92 5.76 1.92 5.717334 1.877333 5.76 1.28 5.717333 1.92 5.76 1.664 5.76 1.237334 5.674667 1.664 5.76 1.237333 5.76 1.749333 5.717333 1.237334 5.717333 1.92 5.76 1.237333 5.077334 1.92 5.76v0.597333l1.237333 5.12 1.322667 5.418667 1.237333 5.717333 1.237334 5.76 1.28 5.077333 1.28 5.76 1.237333 5.674667 1.92 5.12 1.237333 5.717333 1.28 5.077334 1.28 5.76 1.237334 5.077333 1.237333 5.077333 1.28 5.12 1.28 5.077334 1.237333 5.12 1.28 5.077333 1.28 5.077333 1.237334 5.077334 1.237333 5.077333 1.28 5.077333 1.28 5.077334 0.597333 5.12 1.28 4.437333 1.962667 9.514667 1.237333 4.48 1.237334 4.437333 1.28 4.437333 0.938666 4.437334 1.237334 4.437333 0.682666 4.437333 1.237334 4.437334 1.28 4.437333 0.64 4.437333 1.237333 4.48 1.28 3.84 1.28 4.138667 0.64 3.797333 1.28 3.84 0.64 3.84 0.64 3.797334 0.64 3.84 0.64 3.2 0.682667 3.84 0.64 3.626666 0.682666 3.2 0.597334 3.157334 0.682666 3.328 1.024 3.157333 0.64 3.157333 0.64 3.2 0.64 2.901334 0.682667 2.56 0.981333 3.157333 0.981334 2.602667 0.682666 2.773333 0.64 2.56 0.682667 2.56 0.64 2.56 0.64 2.56 0.64 2.56 0.64 1.92 1.28 2.176 0.64 1.92 0.64 1.92 0.682667 1.877333 1.237333 1.962667 0.64 1.877333 1.621333 3.2 0.64 1.621334 1.28 2.602666 0.64 1.237334 0.64 1.28 0.64 1.237333 0.682667 1.28 0.64 0.64 0.64 0.64 0.64 0.64 0.682667 0.64 0.64 0.682667 1.237333 0.682666 0.682667 0.170667 0.64 0.64h1.28-299.818667l-2.176-0.64-2.432-0.682667-2.432-0.597333-2.56-0.682667-2.56-0.64h-0.682667l-2.218666-1.024-2.389334-0.64-2.432-1.322666-2.602666-1.28-1.877334-1.237334-2.56-1.28-1.92-1.237333-2.602666-1.28-1.877334-1.92-1.877333-1.92-2.602667-1.92-1.92-1.92-2.56-1.877333-2.56-2.56-2.56-2.389334-1.877333-2.56-2.602667-2.304-2.56-1.92-2.56-2.56-2.602666-2.56-1.877334-2.56-2.645333-0.213333-2.517333-2.56-1.92-2.901333-2.304-2.773334-5.077334-6.314666-2.517333-3.2-1.92-3.157334-2.602667-3.84-2.517333-3.157333-2.602667-3.84-2.56-3.2-2.56-3.754667-2.56-3.84-2.56-3.84-2.602666-3.84-2.517334-3.84-2.602666-3.84-2.56-3.797333-2.56-4.437333-2.517334-3.84-1.962666-4.437334-2.56-4.48-2.56-4.437333-2.56-4.48-2.602667-4.437333-2.517333-4.437334-2.56-4.437333-2.56-4.437333-2.602667-4.437334-2.517333-4.437333-2.602667-4.437333-2.517333-4.437334-2.602667-5.077333-2.56-5.12-2.56-5.077333-2.602667-5.12-2.517333-5.077334-2.602667-5.077333-2.517333-5.077333-2.56-5.077334-5.76-1.194666-2.090667-5.376-2.517333-5.248-2.602667-5.248-2.517333-5.333334-2.730667-5.333333-2.56-5.418667-2.56-5.077333-2.730666-5.077333-2.56-5.077334-2.688-5.077333-2.56-5.077333-2.56-6.4-2.56-5.717334-2.688-5.077333-2.688-5.12-2.56-5.717333-2.688-5.077334-2.602667-5.76-2.56-5.077333-2.56-5.76-2.56-5.717333-2.56-5.717334-2.474667-5.717333-2.517333-5.76-2.602667-5.077333-2.517333-5.717334-2.517333-5.674666-2.517334-5.76-2.56-5.76-2.56-5.717334-5.077333-11.434666-2.56-6.357334-2.56-5.12-2.517333-5.717333-2.602667-5.12-2.56-5.077333-3.114667-5.034667-2.56-5.76-3.157333-5.12-2.56-5.034667-3.157333-5.12-2.602667-5.077333-2.517333-5.12-2.56-5.077333-2.56-5.077334-2.517334-5.845333-5.12-10.197333-2.56-5.077334-2.602666-5.077333-3.157334-5.077333-3.157333-5.077334-5.76-9.770666-2.474667-5.077334-3.157333-4.693333-3.242667-5.12-2.517333-4.778667-2.602667-4.437333-5.333333-8.874667-3.157333-4.522666-2.602667-4.394667-2.474667-4.48-2.602666-3.797333-2.56-4.48-2.688-4.437334-2.816-3.84-2.517334-3.84-3.157333-3.84-3.242667-3.754666-2.517333-3.797334-3.2-3.84-3.754667-4.992-2.858666-3.242666-2.944-3.328-2.517334-3.157334-2.474666-4.266666-3.157334-3.157334-2.816-2.56-3.2-2.944-2.645333-2.773333-3.2-3.456-2.773333-2.56-2.773334-2.56-2.901333-2.474667-2.858667-2.261333-2.944-1.92-2.986666-1.92L28.672 145.066667l-3.2-1.962667-2.56-1.877333-3.157333-1.877334-2.858667-1.28-2.901333-1.28-2.986667-1.28-3.029333-1.28-2.901334-1.322666-2.517333-0.981334L0 131.669333h0.341333v-0.170666z" fill="#1296db" ></path></svg>
